<svg xmlns="http://www.w3.org/2000/svg" version="1.1" xmlnsXlink="http://www.w3.org/1999/xlink" xmlnsSvgjs="http://svgjs.dev/svgjs" viewBox="0 0 6.92014658514121 8.465490749186545"><g transform="matrix(1,0,0,1,0.6371783951096677,5.254312354076877)"><g><path d=" M 1.0170289306640625 0.25649999999999984 Q 1.0170289306640625 0.25949999999999984 1.0087789306640627 0.2609999999999999 Q 1.0005289306640626 0.26249999999999984 0.9990289306640625 0.2579999999999999 Q 0.9750289306640625 0.17099999999999982 0.9180289306640625 0.1289999999999999 Q 0.8610289306640625 0.08699999999999986 0.7680289306640625 0.08699999999999986 L 0.7230289306640625 0.08699999999999986 Q 0.6780289306640626 0.08699999999999986 0.6570289306640624 0.10649999999999982 Q 0.6360289306640625 0.1259999999999999 0.6360289306640625 0.16649999999999987 L 0.6360289306640625 0.4904999999999999 L 0.7440289306640625 0.4904999999999999 Q 0.8310289306640625 0.4904999999999999 0.8767789306640625 0.4597499999999999 Q 0.9225289306640625 0.4289999999999998 0.9225289306640625 0.3749999999999999 Q 0.9225289306640625 0.3719999999999999 0.9315289306640625 0.3719999999999999 Q 0.9405289306640625 0.3719999999999999 0.9405289306640625 0.3749999999999999 L 0.9390289306640626 0.5114999999999998 Q 0.9390289306640626 0.5594999999999999 0.9405289306640625 0.5834999999999999 L 0.9420289306640625 0.6629999999999998 Q 0.9420289306640625 0.6674999999999999 0.9330289306640626 0.6674999999999999 Q 0.9240289306640626 0.6674999999999999 0.9240289306640626 0.6629999999999998 Q 0.9240289306640626 0.6029999999999999 0.8767789306640625 0.5677499999999999 Q 0.8295289306640625 0.5324999999999999 0.7425289306640626 0.5324999999999999 L 0.6360289306640625 0.5324999999999999 L 0.6360289306640625 0.8534999999999999 Q 0.6360289306640625 0.8999999999999999 0.6480289306640625 0.9224999999999999 Q 0.6600289306640625 0.9449999999999998 0.6930289306640625 0.9539999999999998 Q 0.7260289306640625 0.9629999999999999 0.7965289306640625 0.9629999999999999 Q 0.7995289306640625 0.9629999999999999 0.7995289306640625 0.9719999999999999 Q 0.7995289306640625 0.9809999999999999 0.7965289306640625 0.9809999999999999 Q 0.7350289306640625 0.9809999999999999 0.7005289306640625 0.9794999999999999 L 0.5475289306640625 0.9779999999999999 L 0.4350289306640625 0.9794999999999999 Q 0.40502893066406254 0.9809999999999999 0.3525289306640625 0.9809999999999999 Q 0.3480289306640625 0.9809999999999999 0.3480289306640625 0.9719999999999999 Q 0.3480289306640625 0.9629999999999999 0.3525289306640625 0.9629999999999999 Q 0.40502893066406254 0.9629999999999999 0.4290289306640625 0.9554999999999999 Q 0.45302893066406247 0.9479999999999998 0.4612789306640625 0.9262499999999999 Q 0.46952893066406254 0.9044999999999999 0.46952893066406254 0.8594999999999999 L 0.46952893066406254 0.1649999999999998 Q 0.46952893066406254 0.11999999999999988 0.4620289306640625 0.09899999999999987 Q 0.4545289306640625 0.07799999999999985 0.4320289306640625 0.06974999999999987 Q 0.4095289306640625 0.06149999999999989 0.3630289306640625 0.06149999999999989 Q 0.3585289306640625 0.06149999999999989 0.3585289306640625 0.05249999999999988 Q 0.3585289306640625 0.04349999999999987 0.3630289306640625 0.04349999999999987 L 0.9990289306640625 0.04349999999999987 Q 1.0140289306640624 0.04349999999999987 1.0140289306640624 0.05699999999999983 L 1.0170289306640625 0.25649999999999984 Z M 1.4684879150390626 0.9269999999999998 Q 1.4759879150390625 0.9479999999999998 1.4977379150390626 0.9554999999999999 Q 1.5194879150390626 0.9629999999999999 1.5674879150390626 0.9629999999999999 Q 1.5719879150390625 0.9629999999999999 1.5719879150390625 0.9719999999999999 Q 1.5719879150390625 0.9809999999999999 1.5674879150390626 0.9809999999999999 Q 1.5179879150390625 0.9809999999999999 1.4894879150390625 0.9794999999999999 L 1.3754879150390624 0.9779999999999999 L 1.2644879150390627 0.9794999999999999 Q 1.2344879150390626 0.9809999999999999 1.1834879150390625 0.9809999999999999 Q 1.1804879150390626 0.9809999999999999 1.1804879150390626 0.9719999999999999 Q 1.1804879150390626 0.9629999999999999 1.1834879150390625 0.9629999999999999 Q 1.2314879150390625 0.9629999999999999 1.2539879150390625 0.9554999999999999 Q 1.2764879150390624 0.9479999999999998 1.2847379150390625 0.9262499999999999 Q 1.2929879150390626 0.9044999999999999 1.2929879150390626 0.8594999999999999 L 1.2929879150390626 0.1649999999999998 Q 1.2929879150390626 0.11999999999999988 1.2847379150390625 0.09899999999999987 Q 1.2764879150390624 0.07799999999999985 1.2539879150390625 0.06974999999999987 Q 1.2314879150390625 0.06149999999999989 1.1834879150390625 0.06149999999999989 Q 1.1804879150390626 0.06149999999999989 1.1804879150390626 0.05249999999999988 Q 1.1804879150390626 0.04349999999999987 1.1834879150390625 0.04349999999999987 L 1.2644879150390627 0.04499999999999982 Q 1.3334879150390626 0.04799999999999982 1.3754879150390624 0.04799999999999982 Q 1.4219879150390624 0.04799999999999982 1.4909879150390626 0.04499999999999982 L 1.5674879150390626 0.04349999999999987 Q 1.5719879150390625 0.04349999999999987 1.5719879150390625 0.05249999999999988 Q 1.5719879150390625 0.06149999999999989 1.5674879150390626 0.06149999999999989 Q 1.5209879150390626 0.06149999999999989 1.4984879150390626 0.0704999999999999 Q 1.4759879150390625 0.0794999999999999 1.4684879150390626 0.10124999999999984 Q 1.4609879150390626 0.12299999999999989 1.4609879150390626 0.16799999999999982 L 1.4609879150390626 0.8594999999999999 Q 1.4609879150390626 0.9059999999999999 1.4684879150390626 0.9269999999999998 Z M 1.7459578857421876 0.3104999999999999 Q 1.7444578857421875 0.31499999999999984 1.7369578857421875 0.3142499999999998 Q 1.7294578857421876 0.3134999999999999 1.7294578857421876 0.30899999999999983 Q 1.7354578857421876 0.2489999999999999 1.7429578857421875 0.15374999999999983 Q 1.7504578857421875 0.058499999999999885 1.7504578857421875 0.010499999999999843 Q 1.7504578857421875 0.0029999999999998916 1.7587078857421876 0.0029999999999998916 Q 1.7669578857421875 0.0029999999999998916 1.7669578857421875 0.010499999999999843 Q 1.7669578857421875 0.04349999999999987 1.8524578857421876 0.04349999999999987 Q 1.9814578857421876 0.04799999999999982 2.1539578857421877 0.04799999999999982 Q 2.2424578857421875 0.04799999999999982 2.3414578857421877 0.04499999999999982 L 2.4434578857421876 0.04349999999999987 Q 2.5004578857421875 0.04349999999999987 2.5267078857421876 0.03599999999999981 Q 2.5529578857421877 0.02849999999999986 2.5604578857421876 0.005999999999999894 Q 2.5619578857421876 -1.1102230246251565e-16 2.5702078857421875 -1.1102230246251565e-16 Q 2.5784578857421874 -1.1102230246251565e-16 2.5784578857421874 0.005999999999999894 Q 2.5739578857421876 0.05099999999999982 2.5687078857421874 0.1499999999999998 Q 2.5634578857421877 0.2489999999999999 2.5634578857421877 0.30899999999999983 Q 2.5634578857421877 0.3134999999999999 2.5559578857421874 0.3134999999999999 Q 2.5484578857421876 0.3134999999999999 2.5469578857421875 0.30899999999999983 Q 2.5244578857421875 0.1934999999999999 2.4629578857421874 0.13574999999999982 Q 2.4014578857421878 0.07799999999999985 2.3114578857421875 0.07799999999999985 Q 2.2679578857421876 0.07799999999999985 2.2537078857421875 0.09674999999999989 Q 2.239457885742188 0.11549999999999983 2.239457885742188 0.16799999999999982 L 2.239457885742188 0.8594999999999999 Q 2.239457885742188 0.9059999999999999 2.2484578857421873 0.9269999999999998 Q 2.2574578857421876 0.9479999999999998 2.2829578857421877 0.9554999999999999 Q 2.308457885742188 0.9629999999999999 2.3639578857421877 0.9629999999999999 Q 2.3684578857421874 0.9629999999999999 2.3684578857421874 0.9719999999999999 Q 2.3684578857421874 0.9809999999999999 2.3639578857421877 0.9809999999999999 Q 2.3099578857421874 0.9809999999999999 2.2784578857421875 0.9794999999999999 L 2.1539578857421877 0.9779999999999999 L 2.0324578857421876 0.9794999999999999 Q 2.0009578857421877 0.9809999999999999 1.9454578857421876 0.9809999999999999 Q 1.9409578857421876 0.9809999999999999 1.9409578857421876 0.9719999999999999 Q 1.9409578857421876 0.9629999999999999 1.9454578857421876 0.9629999999999999 Q 1.9994578857421876 0.9629999999999999 2.0257078857421877 0.9554999999999999 Q 2.0519578857421874 0.9479999999999998 2.0617078857421873 0.9262499999999999 Q 2.0714578857421877 0.9044999999999999 2.0714578857421877 0.8594999999999999 L 2.0714578857421877 0.1649999999999998 Q 2.0714578857421877 0.11399999999999988 2.0579578857421876 0.09599999999999986 Q 2.0444578857421876 0.07799999999999985 2.0024578857421877 0.07799999999999985 Q 1.8239578857421876 0.07799999999999985 1.7459578857421876 0.3104999999999999 Z M 3.3575460205078125 0.9337499999999999 Q 3.248796020507813 0.8684999999999998 3.1895460205078128 0.7567499999999998 Q 3.1302960205078127 0.6449999999999998 3.1302960205078127 0.5129999999999999 Q 3.1302960205078127 0.3584999999999998 3.2082960205078126 0.24824999999999986 Q 3.2862960205078124 0.1379999999999999 3.4085460205078126 0.0824999999999999 Q 3.530796020507813 0.026999999999999802 3.6582960205078128 0.026999999999999802 Q 3.8007960205078124 0.026999999999999802 3.9087960205078125 0.09374999999999989 Q 4.016796020507813 0.16049999999999986 4.074546020507812 0.2699999999999999 Q 4.1322960205078125 0.37949999999999984 4.1322960205078125 0.5024999999999998 Q 4.1322960205078125 0.6389999999999998 4.0602960205078125 0.7529999999999999 Q 3.9882960205078124 0.8669999999999999 3.8675460205078127 0.9329999999999998 Q 3.7467960205078126 0.9989999999999999 3.6057960205078126 0.9989999999999999 Q 3.4662960205078126 0.9989999999999999 3.3575460205078125 0.9337499999999999 Z M 3.8060460205078126 0.9127499999999998 Q 3.8727960205078125 0.8639999999999999 3.9102960205078126 0.7702499999999999 Q 3.9477960205078126 0.6764999999999999 3.9477960205078126 0.5459999999999998 Q 3.9477960205078126 0.4079999999999998 3.905796020507813 0.2992499999999999 Q 3.8637960205078126 0.1904999999999999 3.7842960205078127 0.1289999999999999 Q 3.7047960205078128 0.0674999999999999 3.5982960205078127 0.0674999999999999 Q 3.461796020507813 0.0674999999999999 3.3882960205078128 0.1702499999999999 Q 3.3147960205078126 0.2729999999999999 3.3147960205078126 0.4574999999999999 Q 3.3147960205078126 0.6029999999999999 3.3590460205078125 0.7177499999999999 Q 3.4032960205078124 0.8324999999999999 3.4805460205078127 0.8969999999999999 Q 3.5577960205078125 0.9614999999999999 3.6552960205078127 0.9614999999999999 Q 3.7392960205078127 0.9614999999999999 3.8060460205078126 0.9127499999999998 Z M 5.329282836914063 0.05249999999999988 Q 5.329282836914063 0.06149999999999989 5.3262828369140625 0.06149999999999989 Q 5.266282836914062 0.06149999999999989 5.231782836914062 0.1087499999999999 Q 5.197282836914062 0.1559999999999998 5.197282836914062 0.23549999999999982 L 5.197282836914062 1.0034999999999998 Q 5.197282836914062 1.0079999999999998 5.190532836914063 1.0094999999999998 Q 5.183782836914062 1.011 5.180782836914062 1.0079999999999998 L 4.477282836914062 0.20699999999999985 L 4.477282836914062 0.7904999999999999 Q 4.477282836914062 0.8699999999999999 4.510282836914063 0.9164999999999999 Q 4.543282836914062 0.9629999999999999 4.6017828369140625 0.9629999999999999 Q 4.604782836914062 0.9629999999999999 4.604782836914062 0.9719999999999999 Q 4.604782836914062 0.9809999999999999 4.6017828369140625 0.9809999999999999 Q 4.559782836914062 0.9809999999999999 4.537282836914062 0.9794999999999999 L 4.456282836914062 0.9779999999999999 L 4.363282836914062 0.9794999999999999 Q 4.337782836914062 0.9809999999999999 4.289782836914062 0.9809999999999999 Q 4.285282836914062 0.9809999999999999 4.285282836914062 0.9719999999999999 Q 4.285282836914062 0.9629999999999999 4.289782836914062 0.9629999999999999 Q 4.355782836914062 0.9629999999999999 4.394032836914063 0.9164999999999999 Q 4.432282836914062 0.8699999999999999 4.432282836914062 0.7904999999999999 L 4.432282836914062 0.1559999999999998 Q 4.382782836914062 0.10199999999999987 4.347532836914062 0.08174999999999988 Q 4.312282836914062 0.06149999999999989 4.274782836914063 0.06149999999999989 Q 4.2717828369140625 0.06149999999999989 4.2717828369140625 0.05249999999999988 Q 4.2717828369140625 0.04349999999999987 4.274782836914063 0.04349999999999987 L 4.337782836914062 0.04499999999999982 Q 4.357282836914062 0.046499999999999875 4.394782836914062 0.046499999999999875 L 4.508782836914063 0.04499999999999982 Q 4.5297828369140625 0.04349999999999987 4.559782836914062 0.04349999999999987 Q 4.571782836914062 0.04349999999999987 4.5777828369140625 0.04949999999999988 Q 4.583782836914062 0.05549999999999988 4.598782836914062 0.07499999999999984 Q 4.6242828369140625 0.10949999999999982 4.634782836914062 0.12149999999999983 L 5.153782836914062 0.7199999999999999 L 5.153782836914062 0.23549999999999982 Q 5.153782836914062 0.15449999999999986 5.120782836914062 0.10799999999999987 Q 5.087782836914062 0.06149999999999989 5.029282836914062 0.06149999999999989 Q 5.026282836914062 0.06149999999999989 5.026282836914062 0.05249999999999988 Q 5.026282836914062 0.04349999999999987 5.029282836914062 0.04349999999999987 L 5.0937828369140625 0.04499999999999982 Q 5.141782836914063 0.04799999999999982 5.174782836914062 0.04799999999999982 Q 5.204782836914062 0.04799999999999982 5.258782836914063 0.04499999999999982 L 5.3262828369140625 0.04349999999999987 Q 5.329282836914063 0.04349999999999987 5.329282836914063 0.05249999999999988 Z" fill="#431a10" fill-rule="nonzero"></path></g><g><path d=" M 0.14175000000000001 1.6935 Q 0.0945 1.7415 0.0735 1.857 Q 0.0735 1.8599999999999999 0.06525 1.8599999999999999 Q 0.057 1.8599999999999999 0.057 1.857 Q 0.063 1.803 0.07050000000000001 1.7160000000000002 Q 0.078 1.629 0.078 1.5855000000000001 Q 0.078 1.578 0.08625000000000001 1.578 Q 0.0945 1.578 0.0945 1.5855000000000001 Q 0.0945 1.6185 0.17550000000000002 1.6185 Q 0.303 1.623 0.47700000000000004 1.623 Q 0.5655 1.623 0.6645 1.62 L 0.7665000000000001 1.6185 Q 0.8205 1.6185 0.84675 1.611 Q 0.873 1.6035 0.8805000000000001 1.581 Q 0.882 1.5750000000000002 0.8895000000000001 1.5750000000000002 Q 0.897 1.5750000000000002 0.897 1.581 Q 0.8925000000000001 1.6245 0.888 1.713 Q 0.8835000000000001 1.8014999999999999 0.8835000000000001 1.857 Q 0.8835000000000001 1.8599999999999999 0.8745 1.8599999999999999 Q 0.8655 1.8599999999999999 0.8655 1.857 Q 0.861 1.74 0.8175 1.69275 Q 0.774 1.6455000000000002 0.6735 1.6455000000000002 Q 0.606 1.6455000000000002 0.5775 1.6515 Q 0.549 1.6575000000000002 0.5385 1.677 Q 0.528 1.6965 0.528 1.7429999999999999 L 0.528 2.4345 Q 0.528 2.481 0.5385 2.5020000000000002 Q 0.549 2.523 0.579 2.5305 Q 0.609 2.5380000000000003 0.6735 2.5380000000000003 Q 0.678 2.5380000000000003 0.678 2.547 Q 0.678 2.556 0.6735 2.556 Q 0.624 2.556 0.594 2.5545 L 0.47700000000000004 2.553 L 0.3645 2.5545 Q 0.3345 2.556 0.28200000000000003 2.556 Q 0.279 2.556 0.279 2.547 Q 0.279 2.5380000000000003 0.28200000000000003 2.5380000000000003 Q 0.34650000000000003 2.5380000000000003 0.3765 2.5305 Q 0.40650000000000003 2.523 0.41775 2.50125 Q 0.429 2.4795000000000003 0.429 2.4345 L 0.429 1.74 Q 0.429 1.6935 0.4185 1.67475 Q 0.40800000000000003 1.6560000000000001 0.3795 1.65075 Q 0.35100000000000003 1.6455000000000002 0.28350000000000003 1.6455000000000002 Q 0.189 1.6455000000000002 0.14175000000000001 1.6935 Z M 2.074458251953125 2.547 Q 2.074458251953125 2.556 2.0699582519531248 2.556 Q 2.023458251953125 2.556 1.996458251953125 2.5545 L 1.8929582519531252 2.553 L 1.783458251953125 2.5545 Q 1.7564582519531249 2.556 1.711458251953125 2.556 Q 1.706958251953125 2.556 1.706958251953125 2.547 Q 1.706958251953125 2.5380000000000003 1.711458251953125 2.5380000000000003 Q 1.769958251953125 2.5380000000000003 1.796958251953125 2.5305 Q 1.823958251953125 2.523 1.8337082519531251 2.50125 Q 1.843458251953125 2.4795000000000003 1.843458251953125 2.4345 L 1.843458251953125 2.0835 L 1.267458251953125 2.0835 L 1.267458251953125 2.4345 Q 1.267458251953125 2.4795000000000003 1.277208251953125 2.50125 Q 1.286958251953125 2.523 1.313958251953125 2.5305 Q 1.3409582519531251 2.5380000000000003 1.3994582519531251 2.5380000000000003 Q 1.402458251953125 2.5380000000000003 1.402458251953125 2.547 Q 1.402458251953125 2.556 1.3994582519531251 2.556 Q 1.3529582519531251 2.556 1.325958251953125 2.5545 L 1.2179582519531251 2.553 L 1.114458251953125 2.5545 Q 1.087458251953125 2.556 1.039458251953125 2.556 Q 1.0364582519531251 2.556 1.0364582519531251 2.547 Q 1.0364582519531251 2.5380000000000003 1.039458251953125 2.5380000000000003 Q 1.096458251953125 2.5380000000000003 1.1242082519531251 2.5305 Q 1.151958251953125 2.523 1.161708251953125 2.50125 Q 1.171458251953125 2.4795000000000003 1.171458251953125 2.4345 L 1.171458251953125 1.74 Q 1.171458251953125 1.695 1.161708251953125 1.674 Q 1.151958251953125 1.653 1.124958251953125 1.6447500000000002 Q 1.097958251953125 1.6365 1.040958251953125 1.6365 Q 1.037958251953125 1.6365 1.037958251953125 1.6275 Q 1.037958251953125 1.6185 1.040958251953125 1.6185 L 1.117458251953125 1.62 Q 1.180458251953125 1.623 1.2179582519531251 1.623 Q 1.261458251953125 1.623 1.327458251953125 1.62 L 1.3994582519531251 1.6185 Q 1.402458251953125 1.6185 1.402458251953125 1.6275 Q 1.402458251953125 1.6365 1.3994582519531251 1.6365 Q 1.342458251953125 1.6365 1.314708251953125 1.6455000000000002 Q 1.286958251953125 1.6545 1.277208251953125 1.67625 Q 1.267458251953125 1.698 1.267458251953125 1.7429999999999999 L 1.267458251953125 2.052 L 1.843458251953125 2.052 L 1.843458251953125 1.7429999999999999 Q 1.843458251953125 1.698 1.8337082519531251 1.67625 Q 1.823958251953125 1.6545 1.796958251953125 1.6455000000000002 Q 1.769958251953125 1.6365 1.711458251953125 1.6365 Q 1.706958251953125 1.6365 1.706958251953125 1.6275 Q 1.706958251953125 1.6185 1.711458251953125 1.6185 L 1.783458251953125 1.62 Q 1.849458251953125 1.623 1.8929582519531252 1.623 Q 1.933458251953125 1.623 1.996458251953125 1.62 L 2.0699582519531248 1.6185 Q 2.074458251953125 1.6185 2.074458251953125 1.6275 Q 2.074458251953125 1.6365 2.0699582519531248 1.6365 Q 2.0129582519531253 1.6365 1.9859582519531251 1.6447500000000002 Q 1.958958251953125 1.653 1.949208251953125 1.674 Q 1.9394582519531252 1.695 1.9394582519531252 1.74 L 1.9394582519531252 2.4345 Q 1.9394582519531252 2.4795000000000003 1.949208251953125 2.50125 Q 1.958958251953125 2.523 1.9859582519531251 2.5305 Q 2.0129582519531253 2.5380000000000003 2.0699582519531248 2.5380000000000003 Q 2.074458251953125 2.5380000000000003 2.074458251953125 2.547 Z M 2.87991650390625 2.3295 Q 2.88441650390625 2.3295 2.88816650390625 2.331 Q 2.89191650390625 2.3325 2.89191650390625 2.3355 Q 2.87841650390625 2.43 2.87841650390625 2.5335 Q 2.87841650390625 2.5455 2.87316650390625 2.55075 Q 2.86791650390625 2.556 2.85441650390625 2.556 L 2.22591650390625 2.556 Q 2.22291650390625 2.556 2.22291650390625 2.547 Q 2.22291650390625 2.5380000000000003 2.22591650390625 2.5380000000000003 Q 2.2829165039062502 2.5380000000000003 2.30916650390625 2.5305 Q 2.33541650390625 2.523 2.34516650390625 2.50125 Q 2.3549165039062503 2.4795000000000003 2.3549165039062503 2.4345 L 2.3549165039062503 1.74 Q 2.3549165039062503 1.695 2.34516650390625 1.674 Q 2.33541650390625 1.653 2.30916650390625 1.6447500000000002 Q 2.2829165039062502 1.6365 2.22591650390625 1.6365 Q 2.22291650390625 1.6365 2.22291650390625 1.6275 Q 2.22291650390625 1.6185 2.22591650390625 1.6185 L 2.82891650390625 1.6185 Q 2.84241650390625 1.6185 2.84241650390625 1.6320000000000001 L 2.8454165039062502 1.8165 Q 2.8454165039062502 1.8210000000000002 2.83791650390625 1.82175 Q 2.83041650390625 1.8225 2.82891650390625 1.818 Q 2.8244165039062503 1.7385000000000002 2.78091650390625 1.69425 Q 2.73741650390625 1.65 2.66541650390625 1.65 L 2.57391650390625 1.65 Q 2.52141650390625 1.65 2.49666650390625 1.65825 Q 2.4719165039062503 1.6665 2.46216650390625 1.68675 Q 2.45241650390625 1.707 2.45241650390625 1.7475 L 2.45241650390625 2.052 L 2.6354165039062503 2.052 Q 2.7074165039062503 2.052 2.73816650390625 2.028 Q 2.76891650390625 2.004 2.76891650390625 1.947 Q 2.76891650390625 1.944 2.7779165039062503 1.944 Q 2.7869165039062502 1.944 2.7869165039062502 1.947 L 2.78541650390625 2.0685000000000002 Q 2.78541650390625 2.112 2.7869165039062502 2.1345 L 2.78841650390625 2.2065 Q 2.78841650390625 2.2095000000000002 2.77941650390625 2.2095000000000002 Q 2.77041650390625 2.2095000000000002 2.77041650390625 2.2065 Q 2.77041650390625 2.1405 2.73816650390625 2.112 Q 2.7059165039062503 2.0835 2.63091650390625 2.0835 L 2.45241650390625 2.0835 L 2.45241650390625 2.4285 Q 2.45241650390625 2.4705 2.46141650390625 2.49 Q 2.4704165039062502 2.5095 2.4944165039062502 2.517 Q 2.5184165039062503 2.5245 2.56941650390625 2.5245 L 2.68941650390625 2.5245 Q 2.76141650390625 2.5245 2.80941650390625 2.4735 Q 2.8574165039062502 2.4225 2.87391650390625 2.3325 Q 2.87391650390625 2.3295 2.87991650390625 2.3295 Z M 3.712319091796875 2.511 Q 3.590819091796875 2.448 3.527069091796875 2.34 Q 3.4633190917968752 2.232 3.4633190917968752 2.0985 Q 3.4633190917968752 1.953 3.537569091796875 1.8405 Q 3.611819091796875 1.728 3.741569091796875 1.665 Q 3.871319091796875 1.6019999999999999 4.034819091796875 1.6019999999999999 Q 4.108319091796875 1.6019999999999999 4.175069091796875 1.61625 Q 4.241819091796875 1.6305 4.283819091796875 1.6560000000000001 Q 4.295819091796875 1.6635 4.298069091796875 1.6687500000000002 Q 4.300319091796875 1.674 4.301819091796875 1.6905000000000001 L 4.319819091796875 1.8585 Q 4.319819091796875 1.863 4.311569091796875 1.86375 Q 4.303319091796875 1.8645 4.301819091796875 1.8599999999999999 Q 4.268819091796875 1.752 4.182569091796875 1.6935 Q 4.096319091796875 1.635 3.970319091796875 1.635 Q 3.7813190917968753 1.635 3.6778190917968754 1.7445 Q 3.574319091796875 1.854 3.574319091796875 2.0445 Q 3.574319091796875 2.19 3.633569091796875 2.30475 Q 3.692819091796875 2.4195 3.797819091796875 2.484 Q 3.902819091796875 2.5485 4.033319091796875 2.5485 Q 4.109819091796875 2.5485 4.151819091796876 2.535 Q 4.193819091796875 2.5215 4.213319091796875 2.4825 Q 4.232819091796875 2.4435000000000002 4.232819091796875 2.367 Q 4.232819091796875 2.289 4.223069091796875 2.25825 Q 4.213319091796875 2.2275 4.179569091796875 2.217 Q 4.145819091796875 2.2065 4.063319091796875 2.2065 Q 4.054319091796875 2.2065 4.054319091796875 2.1945 Q 4.054319091796875 2.19 4.0565690917968755 2.1862500000000002 Q 4.058819091796876 2.1825 4.061819091796875 2.1825 Q 4.178819091796875 2.19 4.250819091796875 2.19 Q 4.321319091796875 2.19 4.397819091796875 2.1855 Q 4.400819091796875 2.1855 4.403069091796875 2.18925 Q 4.405319091796875 2.193 4.405319091796875 2.196 Q 4.405319091796875 2.2065 4.397819091796875 2.2065 Q 4.361819091796875 2.205 4.346819091796875 2.21625 Q 4.331819091796875 2.2275 4.327319091796875 2.262 Q 4.322819091796875 2.2965 4.322819091796875 2.382 Q 4.322819091796875 2.4495 4.328069091796875 2.478 Q 4.333319091796875 2.5065 4.333319091796875 2.5140000000000002 Q 4.333319091796875 2.523 4.330319091796875 2.5260000000000002 Q 4.327319091796875 2.529 4.316819091796875 2.532 Q 4.135319091796875 2.574 3.997319091796875 2.574 Q 3.833819091796875 2.574 3.712319091796875 2.511 Z M 4.797552978515625 2.50875 Q 4.688802978515625 2.4435000000000002 4.629552978515624 2.33175 Q 4.570302978515625 2.22 4.570302978515625 2.088 Q 4.570302978515625 1.9335 4.648302978515625 1.82325 Q 4.7263029785156245 1.713 4.848552978515625 1.6575000000000002 Q 4.970802978515625 1.6019999999999999 5.098302978515624 1.6019999999999999 Q 5.2408029785156245 1.6019999999999999 5.348802978515625 1.6687500000000002 Q 5.456802978515625 1.7355 5.514552978515624 1.8450000000000002 Q 5.572302978515625 1.9545 5.572302978515625 2.0775 Q 5.572302978515625 2.214 5.5003029785156246 2.328 Q 5.4283029785156245 2.442 5.307552978515624 2.508 Q 5.186802978515625 2.574 5.045802978515625 2.574 Q 4.906302978515625 2.574 4.797552978515625 2.50875 Z M 5.282052978515624 2.493 Q 5.363802978515625 2.4435000000000002 5.411052978515625 2.3475 Q 5.458302978515625 2.2515 5.458302978515625 2.1195 Q 5.458302978515625 1.9785 5.4058029785156245 1.869 Q 5.353302978515625 1.7595 5.258052978515625 1.698 Q 5.162802978515625 1.6365 5.035302978515625 1.6365 Q 4.870302978515625 1.6365 4.777302978515625 1.7429999999999999 Q 4.684302978515625 1.8495 4.684302978515625 2.0355 Q 4.684302978515625 2.1765 4.736802978515625 2.29275 Q 4.789302978515625 2.4090000000000003 4.883802978515625 2.47575 Q 4.978302978515624 2.5425 5.098302978515624 2.5425 Q 5.200302978515625 2.5425 5.282052978515624 2.493 Z" fill="#3e7742" fill-rule="nonzero"></path></g><g clip-path="url(&quot;#SvgjsClipPath1002&quot;)"><g clip-path="url(&quot;#SvgjsClipPath1000&quot;)"><path d=" M 2.725583133008605 -2.5307569038354694 C 2.71206529449358 -2.779002902219567 2.6183253687760057 -3.020682360452155 2.43060183713992 -3.2082904646246373 C 2.2426089747554343 -3.3893961550142757 2.001250148366183 -3.4900232527266972 1.759840020881999 -3.496653919246877 C 1.7662526577487088 -3.2552822675838913 1.8670977851145993 -3.01373106208864 2.0482034755042386 -2.8259947051788217 C 2.235939832414057 -2.6382711735427375 2.477298658803308 -2.544274742350494 2.7255446571874056 -2.5307569038354694 Z M 2.9202066619132703 -2.336389880405473 C 2.933467994953627 -2.0881310567476423 3.027464426145869 -1.8464644237887877 3.2154572885303554 -1.6587793679739038 C 3.393614221585916 -1.4799985286160684 3.6338016608819057 -1.3767296883022189 3.886116502598412 -1.3704287386253977 C 3.87967815835631 -1.6227460770406008 3.7764271400618057 -1.8629181219081703 3.5977530479761666 -2.041190554883323 C 3.4098243119603517 -2.228926911793138 3.1682089800964337 -2.32292334298538 2.9202066619132703 -2.3364411815004056 Z M 2.725583133008605 -2.336389880405473 C 2.71206529449358 -2.0881310567476423 2.6183253687760057 -1.8464644237887877 2.43060183713992 -1.6587793679739038 C 2.252353737955117 -1.4800711137633158 2.0121656144927718 -1.3768177757173508 1.7598400208819975 -1.3704287386253977 C 1.7662526577487088 -1.611787565014649 1.8670977851145993 -1.8534028968785692 2.0482034755042386 -2.04119055488332 C 2.235939832414057 -2.228926911793138 2.477298658803308 -2.32292334298538 2.7255446571874056 -2.3364411815004056 Z M 2.9202066619132703 -2.5307569038354694 C 2.933467994953627 -2.779002902219567 3.027464426145869 -3.020682360452155 3.2154572885303554 -3.2082904646246373 C 3.403193645440174 -3.3893961550142757 3.6444883454607577 -3.4900232527266972 3.8861165025984112 -3.496653919246877 C 3.879667744394627 -3.2443689082804186 3.7764163041284133 -3.0042326196128797 3.597753047976175 -2.825994705178828 C 3.4098243119603517 -2.6382711735427375 3.1682089800964337 -2.544274742350494 2.9202066619132703 -2.5307569038354694 Z M 1.2298355838483714 -2.8326381969727334 C 1.1442574526868823 -2.7779731911019123 1.0407719024576596 -2.7587386768326407 0.9412669248463965 -2.779002902219567 C 0.8406398271339744 -2.792520740734593 0.7535305679365785 -2.85278670200794 0.693020926462299 -2.926621802891244 C 0.7803225647656965 -2.9802570976444107 0.8809496624781185 -3.0070362691997934 0.9813715558108038 -2.9869005894383225 C 1.0804762327260466 -2.968137044881764 1.1690456825042914 -2.91314918753699 1.2298227585746364 -2.832651022246467 Z M 1.2298355838483714 -2.034508587268207 C 1.1442521348992867 -2.0891602288039453 1.0407703227584784 -2.1083894490955326 0.9412669248463965 -2.0881310567476423 C 0.8423037872071597 -2.0692024559525914 0.753878272522499 -2.014241543026885 0.6930978781047002 -1.9338814895557852 C 0.7803995164080977 -1.8868768613227984 0.8810266141205197 -1.8600335633987464 0.9814485074532051 -1.8802590200763518 C 1.0805749896083139 -1.8989994501250833 1.1691576817588307 -1.954013819795891 1.229899710217039 -2.0345598883631397 Z M 4.416031162715903 -2.8326381969727334 C 4.501751830094548 -2.778541496028573 4.60494265718844 -2.7593472586533725 4.704381792064408 -2.779002902219567 C 4.805008889776831 -2.792520740734593 4.892310528080229 -2.85278670200794 4.9523712849738395 -2.926621802891244 C 4.867992308752071 -2.9840197457901203 4.764326514204094 -3.0056907520782277 4.6640206556253325 -2.9869005894383225 C 4.565057452838165 -2.9680978315124786 4.476646533089648 -2.913106202850117 4.416031162715903 -2.832651022246467 Z M 4.416031162715903 -2.034508587268207 C 4.501756501202492 -2.088593433447231 4.6049442504631575 -2.107782508733396 4.704381792064408 -2.0881310567476423 C 4.803391170122626 -2.0693568334024794 4.891852022059555 -2.0143625882745226 4.952499537711175 -1.9338814895557852 C 4.866068063247076 -1.8816248446394468 4.763588152778015 -1.8625674009855246 4.664148908362668 -1.8802590200763518 C 4.5651405323872964 -1.8990237597855866 4.476691185528659 -1.954043360222808 4.416095289084571 -2.0345598883631397 Z M 2.4236377135026723 -0.840475602686706 C 2.477701186254217 -0.754661009452934 2.4968909087145867 -0.6514164481525206 2.47727300825584 -0.551906943684731 C 2.463947548846815 -0.45127984597230864 2.403489208467468 -0.36417058677491276 2.3296412823104307 -0.30390462550156805 C 2.2723380430468962 -0.3883277771957623 2.250747708578981 -0.4919872006799819 2.26958052541682 -0.5922680801238078 C 2.2883372115494556 -0.6912908320831961 2.343277169821258 -0.7797881918458036 2.423701839871339 -0.8405269037816385 Z M 1.6186337570770317 -1.3233984598449418 C 1.5296627308129291 -1.368861087296688 1.4272899107875918 -1.3807447850491399 1.330270302454792 -1.3568724242891692 C 1.2340462019364566 -1.3317596622887211 1.1504735196024494 -1.2720211782662547 1.095567793133186 -1.1891050185822896 C 1.1826770523305834 -1.14235689582397 1.2835093544227392 -1.1221442644200978 1.383931247755426 -1.1489875623441486 C 1.4847507245738494 -1.1757795591732667 1.5718599837712453 -1.2360968215415444 1.6186337570770317 -1.3234112851186755 Z M 1.7126173629955403 -1.2294661550213677 C 1.754034966217318 -1.1362375765476749 1.758860578756625 -1.0308386901459947 1.7261352015105664 -0.9342155284042817 C 1.6930215146973124 -0.841838599936974 1.62906103405719 -0.7637089703278503 1.5450423363946604 -0.7130052070502333 C 1.5013154904291535 -0.8029113089920354 1.4940946496268603 -0.9062552839117033 1.5248938313594573 -1.001368661672473 C 1.5560778624773353 -1.0985654293378015 1.6232351415267763 -1.180166318037283 1.7126173629955388 -1.2294661550213677 Z M 3.2217673232071986 -0.840475602686706 C 3.1677981590031643 -0.7546241099775237 3.1486196721207556 -0.6514153190532888 3.1681448537277643 -0.551906943684731 C 3.1869632444350757 -0.45288220197155216 3.2420599240790957 -0.3644448736511059 3.3226509263942883 -0.30390462550156805 C 3.3747570057988816 -0.3903933648554503 3.3938039287645037 -0.4928167011472606 3.376273395873724 -0.5922552548500741 C 3.3574145536576996 -0.6913217293328491 3.302360419788391 -0.7798234668716368 3.2218314495758684 -0.8405269037816385 Z M 4.026784104906573 -1.3233984598449418 C 4.107583329427126 -1.3635030908093495 4.214764142017326 -1.3836772463920224 4.315147559528812 -1.356872424289171 C 4.411500010168131 -1.331910950765561 4.495191010310429 -1.2721434138948182 4.550068098503886 -1.1891050185822896 C 4.4627664602004895 -1.14235689582397 4.362331741594069 -1.1221442644200978 4.261499439501913 -1.1489875623441486 C 4.1610647208954905 -1.1757795591732667 4.0737630825920945 -1.2360968215415444 4.026796930180306 -1.3234112851186755 Z M 3.93278767371433 -1.2294661550213677 C 3.891681845648494 -1.1361515641055977 3.886951701062147 -1.030839515244585 3.9195263406739724 -0.9342155284042817 C 3.952864582465353 -0.8398748150276076 4.019790767999691 -0.761123085726457 4.107519203058459 -0.7130052070502333 C 4.148790368037186 -0.803860701283881 4.153538563388732 -0.907108693821773 4.120780536098815 -1.001368661672473 C 4.089671365950245 -1.0986632254732318 4.022420312628423 -1.1803147261855367 3.932890275904198 -1.2294918055688346 Z M 2.423637713502671 -4.026658356280503 C 2.4789307209988563 -4.111987301576047 2.498212831276091 -4.215728927888279 2.477273008255838 -4.3152270152824785 C 2.463947548846815 -4.415854112994898 2.403489208467467 -4.502963372192296 2.329641282310429 -4.563216508191908 C 2.2760188128309955 -4.476107248994512 2.2494320203816125 -4.37548015128209 2.269580525416819 -4.274853053569668 C 2.288326143227927 -4.175845496495393 2.3432415900024797 -4.0873553709735635 2.4236377135026723 -4.026607055185569 Z M 1.6186337570770302 -3.5436713727535993 C 1.538411669874482 -3.4966795697943445 1.4375280666873906 -3.483392586206519 1.3302703024547902 -3.510261534678037 C 1.234029596816072 -3.5353463336252076 1.1504464371153489 -3.595096874346785 1.0955677931331844 -3.6780417656586515 C 1.182677052330582 -3.7247770631432373 1.2835093544227374 -3.7449255681784432 1.3839312477554242 -3.718146396623059 C 1.484750724573848 -3.6913030986990085 1.571859983771244 -3.6310371374256616 1.6186337570770302 -3.5437226738485323 Z M 1.7126173629955388 -3.6376678039458414 C 1.7542114695845037 -3.730854618030784 1.7590401600042722 -3.836320730130862 1.7261352015105633 -3.9329184305629274 C 1.6930242968591753 -4.02529693391161 1.629063127333864 -4.103427405014481 1.5450423363946604 -4.154128751916974 C 1.5048735790615853 -4.067019492719578 1.4911761867142896 -3.9597104273920456 1.5248938313594542 -3.8657781225684693 C 1.5560819814177 -3.7685803768087243 1.6232376945762157 -3.6869768026994576 1.7126173629955388 -3.6376678039458414 Z M 3.221767323207197 -4.026658356280503 C 3.1681448537277626 -4.107136948957721 3.148175902524826 -4.2077640466701425 3.1681448537277626 -4.3152270152824785 C 3.186960359440988 -4.414249382459172 3.2420579737376087 -4.502683637463694 3.3226509263942865 -4.563216508191908 C 3.369386223878873 -4.476107248994512 3.3964347261826586 -4.37548015128209 3.3762220947787873 -4.274853053569668 C 3.357350552957793 -4.175795343981544 3.302292966307892 -4.087304548731565 3.221767323207197 -4.026607055185569 Z M 4.026784104906572 -3.5436713727535993 C 4.1148776934863225 -3.4953790022344444 4.218345606490079 -3.4833911925308856 4.31514755952881 -3.510261534678037 C 4.411516703760185 -3.5351947736939913 4.495218306141145 -3.5949744517170146 4.5500680985038855 -3.6780417656586515 C 4.462766460200488 -3.7247770631432373 4.362331741594067 -3.7449255681784432 4.261499439501911 -3.718146396623059 C 4.16106472089549 -3.6913030986990085 4.073763082592093 -3.6310371374256616 4.026796930180305 -3.5437226738485323 Z M 3.9327876737143286 -3.6376678039458414 C 3.891507578376365 -3.730941528798569 3.8867744718598507 -3.8363195221415793 3.9195263406739715 -3.9329184305629274 C 3.9528603370494415 -4.027261586158532 4.019787673016969 -4.106014669169033 4.107519203058457 -4.154128751916974 C 4.148615731024795 -4.06323582196604 4.153360842679156 -3.960059472522127 4.120780536098815 -3.8657781225684693 C 4.089674228339291 -3.7684787760865976 4.022422841711405 -3.6868222801591677 3.932890275904198 -3.6376421533983745 Z M 3.798943117032346 -2.034508587268207 C 4.006622774597633 -2.0679825517124364 4.221407633811237 -2.034508587268207 4.40913116544732 -1.913656032878181 C 4.590710632888046 -1.7979761865021158 4.722372080274674 -1.6184757027483783 4.778165591852779 -1.410533369589805 C 4.5667309275176695 -1.3705439989618675 4.348022581650708 -1.4138417535635628 4.167772339058069 -1.5313730987060992 C 3.986315245766778 -1.6471445907641185 3.8547454778796912 -1.8266244570347365 3.798943117032346 -2.034508587268207 Z M 2.4236377135026697 -1.4575251725490599 C 2.46433498217218 -1.2461291039393507 2.4210925743504657 -1.0271937131892335 2.303080140408512 -0.8471447450280816 C 2.1872486172149346 -0.6657019165415572 2.0078035789828297 -0.5340844928838795 1.7999446518464033 -0.4781103186226261 C 1.7631703590478198 -0.6895729315863668 1.8062093132964858 -0.9071579941190633 1.9207202545940312 -1.088695950523336 C 2.0363889500428076 -1.2701673578949602 2.215816845500215 -1.4017493397275271 2.4236633640501397 -1.4575251725490599 Z M 1.846987755900594 -2.8326381969727334 C 1.635479406021544 -2.7926764259566137 1.416709437998196 -2.8359452136590457 1.2363379976312174 -2.9534137997203604 C 1.0550399880295092 -3.069357721426301 0.9235175098528634 -3.2487668392283755 0.8674959503317601 -3.4565492882824698 C 1.075380812276781 -3.490023252726699 1.290152846216651 -3.4565492882824698 1.4778892031264674 -3.3357736855348437 C 1.6594590177624702 -3.220063685861395 1.7911331778093573 -3.040572483990608 1.8469877559005925 -2.8326381969727334 Z M 3.221857100123335 -3.409608786418148 C 3.185153181598966 -3.621041695840338 3.2282861026154133 -3.838571113021195 3.3428892083456296 -4.020002039212858 C 3.4585767646627072 -4.201470450680426 3.6379552933934916 -4.3331062013996196 3.845768191433069 -4.389036465618312 C 3.8864951092962317 -4.1776362181729745 3.843250625547961 -3.958685716573887 3.7252106183389118 -3.7786432128236034 C 3.6113720413054593 -3.5952346228542336 3.430979788829276 -3.4629898668606107 3.221818624302135 -3.409608786418148 Z M 1.846987755900594 -2.0345598883631397 C 1.6354962237746018 -2.0712110749125396 1.4179263851455366 -2.0281522340623157 1.236337997631216 -1.9137073339731137 C 1.055030500799706 -1.7977793514431926 0.9235045059855205 -1.6183700099999663 0.8674959503317585 -1.4105846706847358 C 1.078932857056154 -1.369961075233865 1.2978785320301829 -1.4133058139476522 1.4778892031264674 -1.5314243998010317 C 1.659464212353017 -1.647128852657402 1.7911400283796863 -1.8266223118716285 1.846987755900594 -2.0345598883631397 Z M 2.1621303820782165 -2.43018110721798 C 1.9549583127267272 -2.6244559824361 1.6814996521753471 -2.7324175717024266 1.3974875620916527 -2.7320624003552445 C 1.115459812370662 -2.732390262293408 0.844093683323653 -2.624312158308492 0.6395138844464674 -2.43018110721798 C 0.8465483650722517 -2.240776016182451 1.1168856578463773 -2.135568609519086 1.3974875620916527 -2.1351998113492954 C 1.6800843109871848 -2.1355453103750888 1.952519204820709 -2.2406443133635316 2.1621303820782165 -2.43018110721798 Z M 3.221831449575867 -1.4575764736439925 C 3.1883446598579046 -1.24969161169897 3.221831449575867 -1.0349195777591 3.342863557798162 -0.8471960461230159 C 3.458527114761194 -0.6657051604655133 3.637915401945478 -0.534062248569553 3.845742540885601 -0.4781616197175582 C 3.8857930730277235 -0.6896213942032565 3.842600405052503 -0.9083784726037103 3.725184967791444 -1.0887472516182686 C 3.609245557152407 -1.2701562510042779 3.429708950026498 -1.4017005503094202 3.2217929737546664 -1.4575764736439925 Z M 2.826210230721027 -1.766088433301435 C 2.6310791146391974 -1.562169416013853 2.5229121719552796 -1.2903492649542598 2.52458544305843 -1.0081147556562486 C 2.5230119406195772 -0.7258990706194504 2.631164539134982 -0.4541149660076451 2.8262102307210237 -0.2501410780110689 C 3.0167463855437746 -0.4564908988117198 3.122215061496324 -0.7272523231110841 3.121460857338113 -1.0081147556562504 C 3.1223092413197566 -1.2889947443783014 3.016827625923077 -1.5597893870934239 2.82621023072107 -1.7660884333013902 Z M 3.799007243401016 -2.8326894980676647 C 4.010369969411246 -2.792087419878386 4.229236256110092 -2.8354080122201273 4.4091952918159905 -2.9534651008152926 C 4.590764328566329 -3.069161921734251 4.722421938533578 -3.248661749322183 4.778229718221449 -3.456600589377401 C 4.5668300281988135 -3.4932647081265906 4.349344455577755 -3.4502318747819274 4.167836465426739 -3.3358249866297762 C 3.986388022915084 -3.2200442656957873 3.8548210085261094 -3.0405681555880095 3.7990072434010167 -2.8326894980676647 Z M 3.490495283743573 -2.4301811072179786 C 3.6967308443744185 -2.2396339005931813 3.967465558031065 -2.1342415133734587 4.24825093173529 -2.135199811349294 C 4.529122717850822 -2.1342904048031155 4.799940435740107 -2.2396705142883553 5.006327211570343 -2.4301811072179786 C 4.802421040554011 -2.6254271700940284 4.530555916924571 -2.733689355923185 4.248250931735289 -2.732062400355243 C 3.9660313986585165 -2.7337396939761716 3.6942480002817795 -2.62546425720093 3.490495283743573 -2.4301811072179786 Z M 2.4237018398713417 -3.4096600875130787 C 2.4637658547114154 -3.621058283776667 2.420570368287013 -3.8397607077550187 2.303144266777182 -4.020053340307787 C 2.187289749608947 -4.201474614111798 2.007854053878356 -4.333085185331583 1.800008778215074 -4.389087766713245 L 1.800008778215074 -4.36893926167804 L 1.7933139853262279 -4.362308595157861 L 1.7933139853262279 -4.3084424454774926 L 1.7864909397000481 -4.301811778957313 L 1.7864909397000481 -4.2415329924102325 L 1.7864909397000481 -4.2415329924102325 L 1.7864909397000481 -4.214753820854851 L 1.7864909397000481 -4.214753820854851 L 1.7864909397000481 -4.174392684415773 L 1.7864909397000481 -4.174392684415773 L 1.7864909397000481 -4.160990273364355 L 1.7933139853262279 -4.1541544024644415 L 1.7933139853262279 -4.134198276535237 L 1.7933139853262279 -4.134198276535237 L 1.7933139853262279 -4.127311104540389 L 1.7933139853262279 -4.127311104540389 L 1.7933139853262279 -4.1071241236839855 L 1.800008778215074 -4.093798664274961 L 1.800008778215074 -4.093798664274961 L 1.800008778215074 -4.073650159239756 L 1.800008778215074 -4.073650159239756 L 1.800008778215074 -4.0670066674458445 L 1.806639444735254 -4.0535016542045526 L 1.806639444735254 -4.040163369521794 L 1.806639444735254 -4.040163369521794 L 1.8135394420038353 -4.026645531006768 L 1.8135394420038353 -4.006497025971564 L 1.819952078870545 -3.9998663594513837 L 1.819952078870545 -3.986566550589828 L 1.8268392508653926 -3.9796665533212465 L 1.8268392508653926 -3.9730358868010685 L 1.8334570921118376 -3.9597232526657775 L 1.8334570921118376 -3.9529002070395958 L 1.8401005839057494 -3.939561922356839 L 1.8401005839057494 -3.9329312558366594 L 1.8469877559005972 -3.926044083841812 L 1.8469877559005972 -3.9127827508014548 L 1.853618422420777 -3.9060879579126073 L 1.853618422420777 -3.8925572941238493 L 1.860249088940957 -3.8859394528774045 L 1.867136260935803 -3.879052280882557 L 1.867136260935803 -3.8657909478422 L 1.8737669274559832 -3.859096154953354 L 1.880397593976163 -3.845565491164594 L 1.880397593976163 -3.838934824644416 L 1.8872847659710106 -3.832304158124236 L 1.8936974028377205 -3.8187863196092096 L 1.9005974001063017 -3.8121556530890315 L 1.9005974001063017 -3.8054608602001854 L 1.9072152413527466 -3.7919430216851593 L 1.9139228595153261 -3.7853123551649794 L 1.920733079867771 -3.778681688644801 C 2.0343044853463588 -3.5952172027103737 2.2145873697973846 -3.462934664977521 2.423676189323881 -3.409647262239342 Z M 2.826210230721028 -3.094453334966788 C 3.015905955162055 -3.3039918009674967 3.121111830021233 -3.57645952456678 3.121460857338114 -3.8591089802270857 C 3.121008118144015 -4.139775568091852 3.0157060240538587 -4.410145933301098 2.826210230721073 -4.617185260062089 C 2.632212561985717 -4.412498585781141 2.524236932944623 -4.141122470407347 2.524585443058432 -3.8591089802270857 C 2.524127749720888 -3.575121913455331 2.6320001969846087 -3.301652095515452 2.8262102307210375 -3.094453334966782 Z" fill="url(#gradient-8df95642-22db-447d-bdc9-f77a9fd12bd4_0)" transform="matrix(1,0,0,1,0,0)" fill-rule="evenodd"></path></g></g></g><defs><clipPath id="SvgjsClipPath1002"><path d=" M 0.6394625833515333 -4.61713395896721 h 4.366864628218808 v 4.36713395896721 h -4.366864628218808 Z"></path></clipPath><clipPath id="SvgjsClipPath1000"><path d=" M 0.6394625833515333 -4.61713395896721 L 5.006327211570341 -4.61713395896721 L 5.006327211570341 -0.25 L 0.6394625833515333 -0.25 Z"></path></clipPath><linearGradient id="gradient-8df95642-22db-447d-bdc9-f77a9fd12bd4_0" x1="0" x2="1" y1="0" y2="1"><stop stop-color="#f7ca4d" offset="0"></stop><stop stop-color="#3e7742" offset="1"></stop></linearGradient></defs></svg>